<mxfile host="app.diagrams.net" modified="2023-09-13T08:42:48.094Z" agent="Mozilla/5.0 (Windows NT 10.0; Win64; x64) AppleWebKit/537.36 (KHTML, like Gecko) Chrome/116.0.0.0 Safari/537.36" version="21.7.5" etag="wCg4IummtbkO-K1iU5cj" type="github">
  <diagram name="페이지-1" id="GAj2TAmfm_4sh8pQQ1Co">
    <mxGraphModel>
      <root>
        <mxCell id="0" />
        <mxCell id="1" parent="0" />
      </root>
    </mxGraphModel>
  </diagram>
</mxfile>
